<svg id="圖層_1" data-name="圖層 1" xmlns="http://www.w3.org/2000/svg" viewBox="0 0 1212.18 518.18"><defs><style>.cls-1{fill:#f3bf0c;}.cls-2{font-size:194.95px;fill:#fff;font-family:Alisha-Regular, Alisha;}.cls-3{letter-spacing:0.01em;}.cls-4{letter-spacing:-0.01em;}.cls-5{letter-spacing:0em;}.cls-6{letter-spacing:0.02em;}</style></defs><path class="cls-1" d="M287.26,257.52c3.92-10.5,7.83-21,11.79-31.65L268,209.74c7.73-8.9,25.19-13.13,37-3.91,18.69,14.6,36.93,8.21,55.76,4.56a287.65,287.65,0,0,1,85.47-3.88c41.47,4.36,80.43,18.09,119.56,31.12,33.68,11.23,68,16.28,103.27,12.12,27.69-3.26,52.34-13.6,70.33-36.47-7.26,15.19-19.26,25.24-33.88,32.66-30,15.22-62.55,17.71-94.3,12.29-30.46-5.2-59.95-16.44-89.63-25.8-38-12-76.1-24.49-116.6-21.61-24.89,1.77-49.56,6.58-74.33,10-7.94,1.08-9.35,8-11.68,13.58-4.36,10.49-11.14,18.5-21.47,23.26-2.51,1.15-5.46,1.38-8.21,2Z" transform="translate(-76.91 -120.08)"/><path class="cls-1" d="M725.27,120.08c15.57,15,19.63,41.07,10.06,62.21-13.42,29.6-37.16,44.8-68.68,48.81-39.55,5-77.38-3.4-114.59-15.58-37.81-12.37-75.8-24.18-115.47-28.63-16.72-1.87-33.74-1.14-50.63-1.49-6.87-.14-13.74,0-20.61-.49a311.64,311.64,0,0,1,80.38-3.45c45.74,3.88,88.14,20.45,131.84,32.1,30.81,8.22,61.91,13.11,93.94,8.54,38.33-5.46,69.7-39.35,63-76.44C732.93,137.05,728.55,129,725.27,120.08Z" transform="translate(-76.91 -120.08)"/><path class="cls-1" d="M329.88,127.85c14.47-1.74,25.41,2,31.94,12.38,6.66,10.58,16.24,13.31,27.12,14.91a25.79,25.79,0,0,1,3.47.84c.22.06.36.42,1.63,2-5.89-.48-11.06.15-15.38-1.49-7.33-2.78-11.44.63-16.74,4.81-6.16,4.86-13.57,8.26-20.74,11.67-2.28,1.09-5.52.17-8.32.17l-1.36-2.44c4.58-5.27,8.91-10.79,13.85-15.7,3.28-3.26,3.84-5.06.14-8.67C340.17,141.16,335.81,135,329.88,127.85Z" transform="translate(-76.91 -120.08)"/><path class="cls-1" d="M172.57,289.59c-9.84,15.42-28.79,21.11-48.69,15C130.81,288.45,154.08,281,172.57,289.59Z" transform="translate(-76.91 -120.08)"/><path class="cls-1" d="M77.5,417.92c-2.65-26.47,3.35-39.86,23.83-43.15C107.43,390.24,100.26,403.49,77.5,417.92Z" transform="translate(-76.91 -120.08)"/><path class="cls-1" d="M242.66,244.14C227.58,259,209,258.58,191.18,248.76,199.91,235.4,224.88,231.65,242.66,244.14Z" transform="translate(-76.91 -120.08)"/><path class="cls-1" d="M141.64,318c-7.28,15.7-27,24.34-47,20.62C96.46,324.09,124,310.08,141.64,318Z" transform="translate(-76.91 -120.08)"/><path class="cls-1" d="M155.26,275.43c9.05-15.63,35.53-21,50.55-10.17C195.76,278.83,177.33,282.55,155.26,275.43Z" transform="translate(-76.91 -120.08)"/><path class="cls-1" d="M227.9,226.1c16.87-12,40.43-10.82,51.37,2.12C265.92,238.76,244.81,238,227.9,226.1Z" transform="translate(-76.91 -120.08)"/><path class="cls-1" d="M252.77,275.26c7-15.19,5.71-35.36,28.3-38.47C287.93,248.51,272.06,270.78,252.77,275.26Z" transform="translate(-76.91 -120.08)"/><path class="cls-1" d="M148.47,325.11c8.1,15,3.36,35.92-10.12,46.21C130.61,347.07,133.36,333.76,148.47,325.11Z" transform="translate(-76.91 -120.08)"/><path class="cls-1" d="M188.6,317.69c6.76-16.62-1.46-38.4,22.68-44.14C215.76,289.8,205.84,310.25,188.6,317.69Z" transform="translate(-76.91 -120.08)"/><path class="cls-1" d="M162.74,342.75c-1.61-24.29-2.43-39.5,16.7-45.54C184.21,314,177.36,333.34,162.74,342.75Z" transform="translate(-76.91 -120.08)"/><path class="cls-1" d="M222.42,293.22c1.84-22.25,4.24-38,24-39.26C249,269.19,237,288.78,222.42,293.22Z" transform="translate(-76.91 -120.08)"/><path class="cls-1" d="M157.56,206c-1.58,14.56-8.58,20.27-28.82,24C132.08,211.61,142.11,203,157.56,206Z" transform="translate(-76.91 -120.08)"/><path class="cls-1" d="M115.14,349.6c-8.08,16.34-24,15-37.49,20.53C86,352.86,97.43,346.5,115.14,349.6Z" transform="translate(-76.91 -120.08)"/><path class="cls-1" d="M186.51,212.67c5.13-19.15,3.25-27.08,20.88-31.51C210.19,192.89,200.16,208.53,186.51,212.67Z" transform="translate(-76.91 -120.08)"/><path class="cls-1" d="M263.34,135.79c13.83-4.64,31.33-.58,35.86,12.37C289.77,152.87,275.56,148.12,263.34,135.79Z" transform="translate(-76.91 -120.08)"/><path class="cls-1" d="M214.2,198.48C218.45,181,224,168.19,237.68,170,237,183.92,227.84,195,214.2,198.48Z" transform="translate(-76.91 -120.08)"/><path class="cls-1" d="M117.15,393.19c-8.08-22.86-6.39-32.9,6.73-38.41C125.21,368,128,380.84,117.15,393.19Z" transform="translate(-76.91 -120.08)"/><path class="cls-1" d="M296.91,131.63c14.14-5.88,29.33.23,36.14,14.53C316.82,151.35,308.44,138.07,296.91,131.63Z" transform="translate(-76.91 -120.08)"/><path class="cls-1" d="M299.91,171.77c7.75-6,15.31-12.34,23.41-17.86,1.7-1.16,5.36.57,8.12,1-.88,2.56-1.11,5.7-2.77,7.58-7.14,8.11-15.7,13.38-26.86,12Z" transform="translate(-76.91 -120.08)"/><path class="cls-1" d="M271.33,177.9c8.32-10.31,11.88-25,29-22.28C298.82,168.72,285.15,179.48,271.33,177.9Z" transform="translate(-76.91 -120.08)"/><path class="cls-1" d="M228.18,145.71c14.37-7.61,26.86-5.27,39.1,6.66C260.31,158,256.7,159.78,228.18,145.71Z" transform="translate(-76.91 -120.08)"/><path class="cls-1" d="M269.58,163c-5,13.34-12.93,21.95-26.86,24.59C247.37,168.37,255.72,160.37,269.58,163Z" transform="translate(-76.91 -120.08)"/><path class="cls-1" d="M195.34,160c8.76-10.29,31.94-9.19,39.22,2.69C221,170.24,208.85,162.19,195.34,160Z" transform="translate(-76.91 -120.08)"/><path class="cls-1" d="M204.32,175.48c-13.14,7.68-25.71,3.47-39.35.15C176.89,164.83,195.05,165,204.32,175.48Z" transform="translate(-76.91 -120.08)"/><path class="cls-1" d="M180.19,196c-1.23,11-3.67,20.27-13.29,26C161.93,211.92,167.62,200,180.19,196Z" transform="translate(-76.91 -120.08)"/><path class="cls-1" d="M143.17,195.28c7-9.12,18-11.19,30.75-6.31C170.58,197,166.66,197.87,143.17,195.28Z" transform="translate(-76.91 -120.08)"/><path class="cls-1" d="M625.64,549.63c11.64-20.28,29.05-31.88,49.83-38.41,38-12,76.16-10,113.88,1.83,30,9.39,59.58,20.43,89.9,28.75,26,7.14,52.7,13.8,80,11.25,26-2.43,51.8-6.78,77.58-10.94,2.88-.46,6-4.77,7.42-8,5.33-11.74,11.48-22.57,23.93-28.09a70.56,70.56,0,0,1,8.15-2.52l2.28,1.68c-3.85,10.7-7.71,21.4-11.64,32.3l31.74,16.92c-12.76,9.92-28.73,11.25-43.41.5-11.3-8.27-22.16-6.68-34.21-5.09-25.62,3.38-51.29,7.87-77,8.56-34.89.93-68.52-8.25-101.75-18.45-28.73-8.82-57.24-19.4-86.65-24.68C720.8,509,685.1,509.31,652.83,528,643.2,533.53,635.19,541.9,625.64,549.63Z" transform="translate(-76.91 -120.08)"/><path class="cls-1" d="M999.7,578.68c-26.59,5.44-53.57,5.39-80.67,3.12-41.09-3.43-79.51-17.65-118.87-28.38-24.55-6.69-50-10.67-75.33-13.66-18.27-2.15-36.6,1.29-53.83,8.84-21.55,9.44-45.79,37.08-39.91,69.2,1.26,6.89,4.27,13.46,5.88,20.46-7.33-7.22-10.21-16.63-11.35-26.51-3.57-30.84,19.75-62.41,46.87-72.21a138,138,0,0,1,34.89-7.61c37.15-3.15,72.82,4.6,107.85,16.48,50,17,100.66,31.17,154.23,30.29C979.58,578.53,989.71,578.68,999.7,578.68Z" transform="translate(-76.91 -120.08)"/><path class="cls-1" d="M971.8,605.24c4.86.47,10,0,14.52,1.6,7.91,2.73,13.16-.14,18.19-5.78,7.45-8.35,16.69-12,30.93-9.92-5.92,6.89-10.16,12.37-15,17.24-3.19,3.19-4,5.1-.36,8.73,5.26,5.25,9.72,11.31,15.27,17.93-10.47,3.17-18.14-1.13-25.77-5.59a3.66,3.66,0,0,1-1.32-1.21c-8.29-13.76-21-20-37.11-20.63Z" transform="translate(-76.91 -120.08)"/><path class="cls-1" d="M1287.87,344.19c4,24-1.69,36.65-17.77,43.91-5.89,2.66-8.61.63-8-4.77.8-6.71,1.56-14.38,5.25-19.56C1272.58,356.47,1280.45,351.05,1287.87,344.19Z" transform="translate(-76.91 -120.08)"/><path class="cls-1" d="M1224.27,445.62c4-14.28,30.18-25.63,47.3-21.36C1265.89,442,1245.19,451.5,1224.27,445.62Z" transform="translate(-76.91 -120.08)"/><path class="cls-1" d="M1242.24,458.84c-9.36,17.3-35.19,24.69-48.88,14.53C1200.94,460,1222.55,452.38,1242.24,458.84Z" transform="translate(-76.91 -120.08)"/><path class="cls-1" d="M1175.21,515.35c-12.35,12.95-35.34,16.34-51.49,3.69C1134.84,506.3,1157.93,504.11,1175.21,515.35Z" transform="translate(-76.91 -120.08)"/><path class="cls-1" d="M1159.07,498c15-16.27,32.84-14.54,51.15-10.6C1204.43,502.79,1175.11,509.32,1159.07,498Z" transform="translate(-76.91 -120.08)"/><path class="cls-1" d="M1086.13,536c11.89-11.19,31.7-10.86,51.39.34C1126.47,549.52,1102,549.54,1086.13,536Z" transform="translate(-76.91 -120.08)"/><path class="cls-1" d="M1175.08,446.94c1.58,26.51-3.3,36.83-20.56,43.41C1149.56,474.78,1160,452.8,1175.08,446.94Z" transform="translate(-76.91 -120.08)"/><path class="cls-1" d="M1227.87,393.11c6.13,33.47,3.74,37.16-11.19,45.21C1209.3,423.3,1215.13,399.73,1227.87,393.11Z" transform="translate(-76.91 -120.08)"/><path class="cls-1" d="M1082.05,525.77c2.67-19.75,14-33.72,29.67-37.11C1108.61,513.85,1098.7,526.53,1082.05,525.77Z" transform="translate(-76.91 -120.08)"/><path class="cls-1" d="M1118.78,509.23c.08-16.44,9.47-34.83,24.67-39.26C1145.86,491.57,1134.73,509.75,1118.78,509.23Z" transform="translate(-76.91 -120.08)"/><path class="cls-1" d="M1186.1,466.42c-4.1-18.33,2.44-37,15.72-44.77C1206,445,1204.39,460.6,1186.1,466.42Z" transform="translate(-76.91 -120.08)"/><path class="cls-1" d="M1237.49,533.22c-5.16,20.07-14.29,27.78-29.08,24.54C1208.34,544.08,1216.11,537.52,1237.49,533.22Z" transform="translate(-76.91 -120.08)"/><path class="cls-1" d="M1287.24,394.74c-8.07,15.9-20.21,22.46-35.14,19.56C1253.78,403.59,1263.61,398,1287.24,394.74Z" transform="translate(-76.91 -120.08)"/><path class="cls-1" d="M1249.13,370.54c7.09,25.4,6,32.33-5.57,37.61C1237.37,397.66,1239.68,380.19,1249.13,370.54Z" transform="translate(-76.91 -120.08)"/><path class="cls-1" d="M1137.06,617.78c-13.39,8-28.77,5.13-38.66-7.12C1109.37,604.36,1112.67,605,1137.06,617.78Z" transform="translate(-76.91 -120.08)"/><path class="cls-1" d="M1130.71,601.15c14.19-9,26.42,1.12,39.35,2C1162.68,614,1141.92,614.22,1130.71,601.15Z" transform="translate(-76.91 -120.08)"/><path class="cls-1" d="M1032.35,617.56c12.55-3.26,17-1.38,34.75,14.13C1056.21,638.12,1040.79,632.05,1032.35,617.56Z" transform="translate(-76.91 -120.08)"/><path class="cls-1" d="M1066.48,615.38c9.91-4.4,24.74.67,35.3,12.07C1090.77,633.56,1070.06,627.72,1066.48,615.38Z" transform="translate(-76.91 -120.08)"/><path class="cls-1" d="M1156.55,582c2.71-14.36,7.88-25.69,21.46-31.68C1179.69,566.4,1171.28,579.23,1156.55,582Z" transform="translate(-76.91 -120.08)"/><path class="cls-1" d="M1201.2,587.51c-13.64,11.73-27.36,11.36-40,1.36C1174,579.39,1186.69,585,1201.2,587.51Z" transform="translate(-76.91 -120.08)"/><path class="cls-1" d="M1092.86,585.6c-7.1,18-14.81,23.87-28.53,21.62C1069,593.34,1081.14,584.14,1092.86,585.6Z" transform="translate(-76.91 -120.08)"/><path class="cls-1" d="M1065.05,592.1c-7.47,6-14.71,12.35-22.59,17.77-1.72,1.19-5.72-.94-8.67-1.54.88-2.28,1.11-5.41,2.77-6.67A141.68,141.68,0,0,1,1055,589.54c2.29-1.24,5.81-.2,8.77-.2C1064.18,590.26,1064.61,591.18,1065.05,592.1Z" transform="translate(-76.91 -120.08)"/><path class="cls-1" d="M1150.94,565.73c-2.48,18.87-10.65,28.63-22.55,26.93C1128.7,579.88,1138.49,568.19,1150.94,565.73Z" transform="translate(-76.91 -120.08)"/><path class="cls-1" d="M1097.27,601c1.79-13.22,13.26-23.78,25.49-23.49C1115.11,597.43,1109.37,604.43,1097.27,601Z" transform="translate(-76.91 -120.08)"/><path class="cls-1" d="M1200.61,540.63c.39,17.25-3.42,23.91-15.3,26.49C1186.92,556.29,1189.37,546.73,1200.61,540.63Z" transform="translate(-76.91 -120.08)"/><path class="cls-1" d="M1190.1,573.38c10.63-9.83,21.55-4.21,33.39-5.69C1213.8,577.73,1203.71,579.37,1190.1,573.38Z" transform="translate(-76.91 -120.08)"/><text class="cls-2" transform="translate(194.42 336.43)"><tspan class="cls-3">G</tspan><tspan class="cls-4" x="122.42" y="0">r</tspan><tspan class="cls-5" x="173.5" y="0">eat</tspan><tspan class="cls-6" x="360.06" y="0">W</tspan><tspan x="544.67" y="0">heat</tspan></text></svg>